#!OML:ASF X:\für Bonn\!DataBase\2005_08_11_Bastian_Final\c3d\Bastian.ASF
:FULLY-SPECIFIED
:DEGREES
48
root -22.5772 17.6384 -0.370575 71.1425 -83.6507 -79.284
lowerback 6.06731 -0.480294 2.62976
upperback 5.20743 -0.699911 0.954817
thorax 1.95253 -0.358767 -0.46365
lowerneck -8.80026 -5.01883 -3.18729
upperneck -8.9717 -6.51538 5.78287
head -1.03434 -3.34741 2.24216
rclavicle -3.37934e-015 -1.59028e-015
rhumerus -15.2338 5.97879 -55.5527
rradius 100.307
rwrist -2.72866
rhand -1.84405 -1.89154
rfingers 7.12502
rthumb 23.823 -30.4344
lclavicle -3.37934e-015 -1.59028e-015
lhumerus -23.7814 -14.1973 89.9206
lradius 23.5829
lwrist 17.0338
lhand -11.8495 -8.49521
lfingers 7.12502
lthumb 14.202 20.9993
rfemur 0.276275 3.69983 26.4082
rtibia 27.3842
rfoot -10.6981 -15.9808
rtoes -7.98512
lfemur 2.34711 4.30191 -12.4921
ltibia 22.6009
lfoot -9.83901 -5.4744
ltoes -14.617
49
root -22.5715 17.6391 -0.369715 71.5431 -83.6803 -79.6855
lowerback 6.09745 -0.400633 2.64502
upperback 5.20599 -0.590065 0.854436
thorax 1.93613 -0.30134 -0.579903
lowerneck -8.81177 -5.10793 -3.10488
upperneck -8.94357 -6.6387 5.83034
head -1.0188 -3.4112 2.23857
rclavicle 4.57205e-015 -1.82882e-014
rhumerus -12.1844 5.97214 -53.9039
rradius 99.9827
rwrist -2.7285
rhand -2.84423 -1.56979
rfingers 7.12502
rthumb 22.8634 -30.2345
lclavicle 4.57205e-015 -1.82882e-014
lhumerus -23.625 -14.4716 89.8959
lradius 23.0005
lwrist 17.0103
lhand -11.7555 -8.4061
lfingers 7.12502
lthumb 14.2926 21.082
rfemur 0.247814 3.70321 26.3727
rtibia 27.3847
rfoot -10.6788 -15.9314
rtoes -7.91446
lfemur 2.34586 4.26296 -12.5323
ltibia 22.5909
lfoot -9.8246 -5.37754
ltoes -14.5671
50
root -22.5658 17.6401 -0.3693 72.0215 -83.6649 -80.1688
lowerback 6.13129 -0.319307 2.73797
upperback 5.20731 -0.474698 0.731656
thorax 1.92086 -0.238574 -0.76301
lowerneck -8.84798 -5.20735 -2.96733
upperneck -8.89196 -6.77997 5.88644
head -0.992455 -3.48508 2.22625
rclavicle 1.88845e-015 -1.03368e-014
rhumerus -9.15364 5.92608 -52.3206
rradius 99.4704
rwrist -2.95023
rhand -4.05778 -1.27446
rfingers 7.12502
rthumb 21.6985 -30.0784
lclavicle 1.88845e-015 -1.03368e-014
lhumerus -23.477 -14.7866 89.8288
lradius 22.3992
lwrist 16.9573
lhand -11.6751 -8.32859
lfingers 7.12502
lthumb 14.3701 21.154
rfemur 0.227232 3.69098 26.3913
rtibia 27.3818
rfoot -10.6532 -15.8715
rtoes -7.90263
lfemur 2.341 4.22343 -12.5191
ltibia 22.5848
lfoot -9.81885 -5.29008
ltoes -14.6554
51
root -22.5597 17.6407 -0.368467 72.235 -83.6734 -80.3821
lowerback 6.15553 -0.244729 2.78289
upperback 5.21662 -0.371397 0.624936
thorax 1.91985 -0.183461 -0.902381
lowerneck -8.8808 -5.31342 -2.85296
upperneck -8.87748 -6.92956 5.91989
head -0.978458 -3.56312 2.21137
rclavicle 9.44227e-016 -9.54166e-015
rhumerus -6.06628 5.71892 -50.7835
rradius 98.7039
rwrist -3.24428
rhand -5.21 -0.898727
rfingers 7.12502
rthumb 20.5916 -29.8265
lclavicle 9.44227e-016 -9.54166e-015
lhumerus -23.3175 -15.1352 89.8061
lradius 21.7883
lwrist 17.0229
lhand -11.59 -8.23821
lfingers 7.12502
lthumb 14.452 21.2386
rfemur 0.193866 3.639 26.3624
rtibia 27.3854
rfoot -10.6411 -15.7798
rtoes -7.82009
lfemur 2.32871 4.20116 -12.5404
ltibia 22.5713
lfoot -9.79815 -5.20338
ltoes -14.8192
52
root -22.5539 17.6412 -0.368105 72.6529 -83.6569 -80.795
lowerback 6.1702 -0.167336 2.86463
upperback 5.22398 -0.263074 0.516259
thorax 1.92297 -0.124682 -1.0647
lowerneck -8.89776 -5.40927 -2.72911
upperneck -8.88254 -7.06622 5.96129
head -0.974057 -3.63565 2.19884
rclavicle 1.93815e-015 6.36111e-015
rhumerus -2.99764 5.37454 -49.4318
rradius 97.6888
rwrist -3.51665
rhand -6.26252 -0.594758
rfingers 7.12502
rthumb 19.58 -29.6288
lclavicle 1.93815e-015 6.36111e-015
lhumerus -23.1235 -15.3391 89.7282
lradius 21.1069
lwrist 16.9132
lhand -11.4764 -8.13583
lfingers 7.12502
lthumb 14.5615 21.3331
rfemur 0.157216 3.62429 26.3808
rtibia 27.3871
rfoot -10.6092 -15.7273
rtoes -7.83748
lfemur 2.31637 4.17146 -12.5239
ltibia 22.5631
lfoot -9.78984 -5.13378
ltoes -14.8216
53
root -22.5477 17.6412 -0.367721 72.8791 -83.6615 -81.0204
lowerback 6.1952 -0.0808059 2.9413
upperback 5.22716 -0.141871 0.384987
thorax 1.91733 -0.059249 -1.24805
lowerneck -8.90944 -5.52223 -2.59379
upperneck -8.86537 -7.2257 6.02491
head -0.962081 -3.71952 2.19044
rclavicle -2.5842e-015 7.15625e-015
rhumerus 0.0100993 4.97382 -48.1851
rradius 96.5197
rwrist -3.86074
rhand -7.19894 -0.540553
rfingers 7.12502
rthumb 18.6795 -29.6637
lclavicle -2.5842e-015 7.15625e-015
lhumerus -22.9709 -15.6667 89.6603
lradius 20.4823
lwrist 16.9036
lhand -11.3833 -8.01949
lfingers 7.12502
lthumb 14.6512 21.4429
rfemur 0.129473 3.61949 26.37
rtibia 27.3918
rfoot -10.5938 -15.6791
rtoes -7.66987
lfemur 2.30091 4.13288 -12.5385
ltibia 22.555
lfoot -9.77438 -5.06702
ltoes -14.8821
54
root -22.5424 17.6419 -0.367531 73.1646 -83.6669 -81.2933
lowerback 6.1972 0.00415757 2.99765
upperback 5.23322 -0.0248755 0.275542
thorax 1.92804 0.00330394 -1.39746
lowerneck -8.94628 -5.62953 -2.50994
upperneck -8.83831 -7.37378 6.08608
head -0.941653 -3.79568 2.18934
rclavicle -3.03147e-015 1.43125e-014
rhumerus 3.034 4.5875 -46.9139
rradius 95.2215
rwrist -4.20154
rhand -8.02641 -0.663832
rfingers 7.12502
rthumb 17.8834 -29.8616
lclavicle -3.03147e-015 1.43125e-014
lhumerus -22.8324 -15.9772 89.618
lradius 19.8841
lwrist 16.9073
lhand -11.2637 -7.8333
lfingers 7.12502
lthumb 14.7665 21.6207
rfemur 0.0816135 3.55023 26.3467
rtibia 27.399
rfoot -10.5662 -15.5788
rtoes -7.7662
lfemur 2.28325 4.09461 -12.5534
ltibia 22.5421
lfoot -9.7554 -4.97601
ltoes -14.8752
55
root -22.5369 17.6419 -0.367575 73.5175 -83.6732 -81.6739
lowerback 6.24429 0.093307 3.07433
upperback 5.24947 0.0992177 0.149132
thorax 1.92569 0.0698323 -1.57615
lowerneck -8.94829 -5.74032 -2.37025
upperneck -8.86697 -7.53159 6.13757
head -0.946922 -3.88008 2.17787
rclavicle 6.01324e-015 4.77083e-015
rhumerus 6.08307 4.15607 -45.699
rradius 93.75
rwrist -4.53931
rhand -8.76927 -0.889142
rfingers 7.12502
rthumb 17.1685 -30.1507
lclavicle 6.01324e-015 4.77083e-015
lhumerus -22.6579 -16.0885 89.5056
lradius 19.2425
lwrist 16.7624
lhand -11.1199 -7.65156
lfingers 7.12502
lthumb 14.905 21.7922
rfemur 0.08173 3.55587 26.3424
rtibia 27.4061
rfoot -10.5607 -15.5323
rtoes -7.67131
lfemur 2.30677 4.0433 -12.5702
ltibia 22.5312
lfoot -9.75829 -4.86795
ltoes -15.1252
